<svg width="20" height="20" viewBox="0 0 20 20" fill="none" xmlns="http://www.w3.org/2000/svg">
  <path
    d="M16.2373 9.01562V9.9194C15.7382 9.9194 15.3335 9.51477 15.3335 9.01562H16.2373ZM18.9482 9.01562V8.11185C19.4474 8.11185 19.852 8.51648 19.852 9.01562H18.9482ZM1.0535 9.01562H0.149731C0.149731 8.51648 0.554363 8.11185 1.0535 8.11185V9.01562ZM1.05389 9.01562H1.95766C1.95766 9.51477 1.55303 9.9194 1.05389 9.9194V9.01562ZM16.2373 8.11185H18.9482V9.9194H16.2373V8.11185ZM19.852 9.01562C19.852 11.7243 18.9643 14.2299 17.2583 16.0671C15.5436 17.9135 13.0595 19.0219 10.0009 19.0219V17.2144C12.5995 17.2144 14.5891 16.2851 15.9338 14.8371C17.2871 13.3798 18.0445 11.3341 18.0445 9.01562H19.852ZM10.0009 19.0219C6.94225 19.0219 4.45812 17.9135 2.74345 16.0671C1.03741 14.2299 0.149731 11.7243 0.149731 9.01562H1.95728C1.95728 11.3341 2.71465 13.3798 4.06797 14.8371C5.41266 16.2851 7.40221 17.2144 10.0009 17.2144V19.0219ZM1.0535 8.11185H1.05389V9.9194H1.0535V8.11185ZM0.150116 9.01562C0.150116 9.01562 0.150116 9.01562 0.150116 9.01562C0.150116 9.01562 0.150116 9.01562 0.150116 9.01562V9.01562V9.01562C0.150116 9.01562 0.150116 9.01562 0.150116 9.01562C0.150116 9.01562 0.150116 9.01562 0.150116 9.01562C0.150116 9.01562 0.150116 9.01562 0.150116 9.01562V9.01562V9.01562C0.150116 9.01562 0.150116 9.01562 0.150116 9.01562C0.150116 9.01562 0.150116 9.01562 0.150116 9.01562C0.150116 9.01562 0.150116 9.01562 0.150116 9.01562C0.150116 9.01562 0.150116 9.01562 0.150116 9.01562V9.01562C0.150116 9.01562 0.150116 9.01562 0.150116 9.01562C0.150116 9.01562 0.150116 9.01562 0.150116 9.01562C0.150116 9.01562 0.150116 9.01562 0.150116 9.01562C0.150116 9.01562 0.150116 9.01562 0.150116 9.01562V9.01562V9.01562C0.150116 9.01561 0.150116 9.01561 0.150116 9.01561C0.150116 9.01561 0.150116 9.01561 0.150116 9.01561C0.150116 9.01561 0.150116 9.01561 0.150116 9.01561V9.01561V9.01561C0.150116 9.01561 0.150116 9.01561 0.150116 9.01561C0.150116 9.01561 0.150116 9.01561 0.150116 9.01561C0.150116 9.01561 0.150116 9.01561 0.150116 9.01561C0.150116 9.01561 0.150116 9.01561 0.150116 9.01561V9.01561V9.01561C0.150116 9.01561 0.150116 9.01561 0.150116 9.01561C0.150116 9.01561 0.150116 9.01561 0.150116 9.01561C0.150116 9.01561 0.150116 9.01561 0.150116 9.01561V9.01561V9.01561C0.150116 9.01561 0.150116 9.01561 0.150116 9.01561C0.150116 9.01561 0.150116 9.01561 0.150116 9.01561C0.150116 9.01561 0.150116 9.01561 0.150116 9.01561C0.150116 9.01561 0.150116 9.01561 0.150116 9.01561V9.01561V9.0156C0.150116 9.0156 0.150116 9.0156 0.150116 9.0156C0.150116 9.0156 0.150116 9.0156 0.150116 9.0156C0.150116 9.0156 0.150116 9.0156 0.150116 9.0156V9.0156V9.0156C0.150116 9.0156 0.150116 9.0156 0.150116 9.0156C0.150116 9.0156 0.150116 9.0156 0.150116 9.0156C0.150116 9.0156 0.150116 9.0156 0.150116 9.0156C0.150116 9.0156 0.150116 9.0156 0.150116 9.0156V9.0156C0.150116 9.0156 0.150116 9.0156 0.150116 9.0156C0.150116 9.0156 0.150116 9.0156 0.150116 9.0156C0.150116 9.0156 0.150116 9.0156 0.150116 9.0156C0.150116 9.0156 0.150116 9.0156 0.150116 9.0156V9.0156V9.0156C0.150116 9.0156 0.150116 9.0156 0.150116 9.0156C0.150116 9.0156 0.150116 9.0156 0.150116 9.0156C0.150116 9.0156 0.150116 9.0156 0.150116 9.0156V9.0156V9.01559C0.150116 9.01559 0.150116 9.01559 0.150116 9.01559C0.150116 9.01559 0.150116 9.01559 0.150116 9.01559C0.150116 9.01559 0.150116 9.01559 0.150116 9.01559C0.150116 9.01559 0.150116 9.01559 0.150116 9.01559V9.01559V9.01559C0.150116 9.01559 0.150116 9.01559 0.150116 9.01559C0.150116 9.01559 0.150116 9.01559 0.150116 9.01559C0.150116 9.01559 0.150116 9.01559 0.150116 9.01559V9.01559V9.01559C0.150116 9.01559 0.150116 9.01559 0.150116 9.01559C0.150116 9.01559 0.150116 9.01559 0.150116 9.01559C0.150116 9.01559 0.150116 9.01559 0.150116 9.01559C0.150116 9.01559 0.150116 9.01559 0.150116 9.01559V9.01559V9.01559C0.150116 9.01559 0.150116 9.01559 0.150116 9.01559C0.150116 9.01559 0.150116 9.01559 0.150116 9.01559C0.150116 9.01559 0.150116 9.01559 0.150116 9.01559V9.01558V9.01558C0.150116 9.01558 0.150116 9.01558 0.150116 9.01558C0.150116 9.01558 0.150116 9.01558 0.150116 9.01558C0.150116 9.01558 0.150116 9.01558 0.150116 9.01558C0.150116 9.01558 0.150116 9.01558 0.150116 9.01558V9.01558C0.150116 9.01558 0.150116 9.01558 0.150116 9.01558C0.150116 9.01558 0.150116 9.01558 0.150116 9.01558C0.150116 9.01558 0.150116 9.01558 0.150116 9.01558C0.150116 9.01558 0.150116 9.01558 0.150116 9.01558V9.01558V9.01558C0.150116 9.01558 0.150116 9.01558 0.150116 9.01558C0.150116 9.01558 0.150116 9.01558 0.150116 9.01558C0.150116 9.01558 0.150116 9.01558 0.150116 9.01558V9.01558V9.01558C0.150116 9.01558 0.150116 9.01558 0.150116 9.01558C0.150116 9.01558 0.150116 9.01558 0.150116 9.01558C0.150116 9.01558 0.150116 9.01558 0.150116 9.01558C0.150116 9.01558 0.150116 9.01558 0.150116 9.01557V9.01557V9.01557C0.150116 9.01557 0.150116 9.01557 0.150116 9.01557C0.150116 9.01557 0.150116 9.01557 0.150116 9.01557C0.150116 9.01557 0.150116 9.01557 0.150116 9.01557V9.01557V9.01557C0.150116 9.01557 0.150116 9.01557 0.150116 9.01557C0.150116 9.01557 0.150116 9.01557 0.150116 9.01557C0.150116 9.01557 0.150116 9.01557 0.150116 9.01557C0.150116 9.01557 0.150116 9.01557 0.150116 9.01557V9.01557C0.150116 9.01557 0.150116 9.01557 0.150116 9.01557C0.150116 9.01557 0.150116 9.01557 0.150116 9.01557C0.150116 9.01557 0.150116 9.01557 0.150116 9.01557C0.150116 9.01557 0.150116 9.01557 0.150116 9.01557V9.01557V9.01557C0.150116 9.01557 0.150116 9.01557 0.150116 9.01557C0.150116 9.01557 0.150116 9.01557 0.150116 9.01557C0.150116 9.01557 0.150116 9.01557 0.150116 9.01556C0.150116 9.01556 0.150116 9.01556 0.150116 9.01556V9.01556C0.150116 9.01556 0.150116 9.01556 0.150116 9.01556C0.150116 9.01556 0.150116 9.01556 0.150116 9.01556C0.150116 9.01556 0.150116 9.01556 0.150116 9.01556C0.150116 9.01556 0.150116 9.01556 0.150116 9.01556V9.01556V9.01556C0.150116 9.01556 0.150116 9.01556 0.150116 9.01556C0.150116 9.01556 0.150116 9.01556 0.150116 9.01556C0.150116 9.01556 0.150116 9.01556 0.150116 9.01556V9.01556V9.01556C0.150116 9.01556 0.150116 9.01556 0.150116 9.01556C0.150116 9.01556 0.150116 9.01556 0.150116 9.01556C0.150116 9.01556 0.150116 9.01556 0.150116 9.01556C0.150116 9.01556 0.150116 9.01556 0.150116 9.01556V9.01556V9.01556C0.150116 9.01556 0.150116 9.01556 0.150116 9.01556C0.150116 9.01556 0.150116 9.01556 0.150116 9.01555C0.150116 9.01555 0.150116 9.01555 0.150116 9.01555V9.01555V9.01555C0.150116 9.01555 0.150116 9.01555 0.150116 9.01555C0.150116 9.01555 0.150116 9.01555 0.150116 9.01555C0.150116 9.01555 0.150116 9.01555 0.150116 9.01555C0.150116 9.01555 0.150116 9.01555 0.150116 9.01555V9.01555C0.150116 9.01555 0.150116 9.01555 0.150116 9.01555C0.150116 9.01555 0.150116 9.01555 0.150116 9.01555C0.150116 9.01555 0.150116 9.01555 0.150116 9.01555C0.150116 9.01555 0.150116 9.01555 0.150116 9.01555V9.01555V9.01555C0.150116 9.01555 0.150116 9.01555 0.150116 9.01555C0.150116 9.01555 0.150116 9.01555 0.150116 9.01555C0.150116 9.01555 0.150116 9.01555 0.150116 9.01555C0.150116 9.01555 0.150116 9.01555 0.150116 9.01555V9.01555C0.150116 9.01555 0.150116 9.01555 0.150116 9.01555C0.150116 9.01554 0.150116 9.01554 0.150116 9.01554C0.150116 9.01554 0.150116 9.01554 0.150116 9.01554C0.150116 9.01554 0.150116 9.01554 0.150116 9.01554V9.01554V9.01554C0.150116 9.01554 0.150116 9.01554 0.150116 9.01554C0.150116 9.01554 0.150116 9.01554 0.150116 9.01554C0.150116 9.01554 0.150116 9.01554 0.150116 9.01554V9.01554V9.01554C0.150116 9.01554 0.150116 9.01554 0.150116 9.01554C0.150116 9.01554 0.150116 9.01554 0.150116 9.01554C0.150116 9.01554 0.150116 9.01554 0.150116 9.01554C0.150116 9.01554 0.150116 9.01554 0.150116 9.01554V9.01554V9.01554C0.150116 9.01554 0.150116 9.01554 0.150116 9.01554C0.150116 9.01554 0.150116 9.01554 0.150116 9.01554C0.150116 9.01554 0.150116 9.01554 0.150116 9.01554V9.01554V9.01554C0.150116 9.01553 0.150116 9.01553 0.150116 9.01553C0.150116 9.01553 0.150116 9.01553 0.150116 9.01553C0.150116 9.01553 0.150116 9.01553 0.150116 9.01553C0.150116 9.01553 0.150116 9.01553 0.150116 9.01553V9.01553C0.150116 9.01553 0.150116 9.01553 0.150116 9.01553C0.150116 9.01553 0.150116 9.01553 0.150116 9.01553C0.150116 9.01553 0.150116 9.01553 0.150116 9.01553C0.150116 9.01553 0.150116 9.01553 0.150116 9.01553V9.01553V9.01553C0.150116 9.01553 0.150116 9.01553 0.150116 9.01553C0.150116 9.01553 0.150116 9.01553 0.150116 9.01553C0.150116 9.01553 0.150116 9.01553 0.150116 9.01553V9.01553V9.01553C0.150116 9.01553 0.150116 9.01553 0.150116 9.01553C0.150116 9.01553 0.150116 9.01553 0.150116 9.01553C0.150116 9.01553 0.150116 9.01553 0.150116 9.01553C0.150116 9.01553 0.150116 9.01553 0.150116 9.01553V9.01553V9.01552C0.150116 9.01552 0.150116 9.01552 0.150116 9.01552C0.150116 9.01552 0.150116 9.01552 0.150116 9.01552C0.150116 9.01552 0.150116 9.01552 0.150116 9.01552V9.01552V9.01552C0.150116 9.01552 0.150116 9.01552 0.150116 9.01552C0.150116 9.01552 0.150116 9.01552 0.150116 9.01552C0.150116 9.01552 0.150116 9.01552 0.150116 9.01552C0.150116 9.01552 0.150116 9.01552 0.150116 9.01552V9.01552V9.01552C0.150116 9.01552 0.150116 9.01552 0.150116 9.01552C0.150116 9.01552 0.150116 9.01552 0.150116 9.01552C0.150116 9.01552 0.150116 9.01552 0.150116 9.01552V9.01552V9.01552C0.150116 9.01552 0.150116 9.01552 0.150116 9.01552C0.150116 9.01552 0.150116 9.01552 0.150116 9.01552C0.150116 9.01552 0.150116 9.01552 0.150116 9.01552C0.150116 9.01552 0.150116 9.01552 0.150116 9.01552V9.01551C0.150116 9.01551 0.150116 9.01551 0.150116 9.01551C0.150116 9.01551 0.150116 9.01551 0.150116 9.01551C0.150116 9.01551 0.150116 9.01551 0.150116 9.01551C0.150116 9.01551 0.150116 9.01551 0.150116 9.01551V9.01551V9.01551C0.150116 9.01551 0.150116 9.01551 0.150116 9.01551C0.150116 9.01551 0.150116 9.01551 0.150116 9.01551C0.150116 9.01551 0.150116 9.01551 0.150116 9.01551V9.01551V9.01551C0.150116 9.01551 0.150116 9.01551 0.150116 9.01551C0.150116 9.01551 0.150116 9.01551 0.150116 9.01551C0.150116 9.01551 0.150116 9.01551 0.150116 9.01551C0.150116 9.01551 0.150116 9.01551 0.150116 9.01551V9.01551V9.01551C0.150116 9.01551 0.150116 9.01551 0.150116 9.01551C0.150116 9.01551 0.150116 9.01551 0.150116 9.01551C0.150116 9.01551 0.150116 9.01551 0.150116 9.01551V9.0155V9.0155C0.150116 9.0155 0.150116 9.0155 0.150116 9.0155C0.150116 9.0155 0.150116 9.0155 0.150116 9.0155C0.150116 9.0155 0.150116 9.0155 0.150116 9.0155C0.150116 9.0155 0.150116 9.0155 0.150116 9.0155V9.0155V9.0155C0.150116 9.0155 0.150116 9.0155 0.150116 9.0155C0.150116 9.0155 0.150116 9.0155 0.150116 9.0155C0.150116 9.0155 0.150116 9.0155 0.150116 9.0155V9.0155V9.0155C0.150116 9.0155 0.150116 9.0155 0.150116 9.0155C0.150116 9.0155 0.150116 9.0155 0.150116 9.0155C0.150116 9.0155 0.150116 9.0155 0.150116 9.0155C0.150116 9.0155 0.150116 9.0155 0.150116 9.0155V9.0155C0.150116 9.0155 0.150116 9.0155 0.150116 9.0155C0.150116 9.0155 0.150116 9.0155 0.150116 9.0155C0.150116 9.0155 0.150116 9.0155 0.150116 9.0155C0.150116 9.0155 0.150116 9.0155 0.150116 9.01549V9.01549V9.01549C0.150116 9.01549 0.150116 9.01549 0.150116 9.01549C0.150116 9.01549 0.150116 9.01549 0.150116 9.01549C0.150116 9.01549 0.150116 9.01549 0.150116 9.01549V9.01549V9.01549C0.150116 9.01549 0.150116 9.01549 0.150116 9.01549C0.150116 9.01549 0.150116 9.01549 0.150116 9.01549H1.95766C1.95766 9.01549 1.95766 9.01549 1.95766 9.01549C1.95766 9.01549 1.95766 9.01549 1.95766 9.01549V9.01549V9.01549C1.95766 9.01549 1.95766 9.01549 1.95766 9.01549C1.95766 9.01549 1.95766 9.01549 1.95766 9.01549C1.95766 9.01549 1.95766 9.01549 1.95766 9.01549V9.01549V9.01549C1.95766 9.0155 1.95766 9.0155 1.95766 9.0155C1.95766 9.0155 1.95766 9.0155 1.95766 9.0155C1.95766 9.0155 1.95766 9.0155 1.95766 9.0155C1.95766 9.0155 1.95766 9.0155 1.95766 9.0155V9.0155C1.95766 9.0155 1.95766 9.0155 1.95766 9.0155C1.95766 9.0155 1.95766 9.0155 1.95766 9.0155C1.95766 9.0155 1.95766 9.0155 1.95766 9.0155C1.95766 9.0155 1.95766 9.0155 1.95766 9.0155V9.0155V9.0155C1.95766 9.0155 1.95766 9.0155 1.95766 9.0155C1.95766 9.0155 1.95766 9.0155 1.95766 9.0155C1.95766 9.0155 1.95766 9.0155 1.95766 9.0155V9.0155V9.0155C1.95766 9.0155 1.95766 9.0155 1.95766 9.0155C1.95766 9.0155 1.95766 9.0155 1.95766 9.0155C1.95766 9.0155 1.95766 9.0155 1.95766 9.0155C1.95766 9.0155 1.95766 9.0155 1.95766 9.0155V9.0155V9.01551C1.95766 9.01551 1.95766 9.01551 1.95766 9.01551C1.95766 9.01551 1.95766 9.01551 1.95766 9.01551C1.95766 9.01551 1.95766 9.01551 1.95766 9.01551V9.01551V9.01551C1.95766 9.01551 1.95766 9.01551 1.95766 9.01551C1.95766 9.01551 1.95766 9.01551 1.95766 9.01551C1.95766 9.01551 1.95766 9.01551 1.95766 9.01551C1.95766 9.01551 1.95766 9.01551 1.95766 9.01551V9.01551V9.01551C1.95766 9.01551 1.95766 9.01551 1.95766 9.01551C1.95766 9.01551 1.95766 9.01551 1.95766 9.01551C1.95766 9.01551 1.95766 9.01551 1.95766 9.01551V9.01551V9.01551C1.95766 9.01551 1.95766 9.01551 1.95766 9.01551C1.95766 9.01551 1.95766 9.01551 1.95766 9.01551C1.95766 9.01551 1.95766 9.01551 1.95766 9.01551C1.95766 9.01551 1.95766 9.01551 1.95766 9.01551V9.01552C1.95766 9.01552 1.95766 9.01552 1.95766 9.01552C1.95766 9.01552 1.95766 9.01552 1.95766 9.01552C1.95766 9.01552 1.95766 9.01552 1.95766 9.01552C1.95766 9.01552 1.95766 9.01552 1.95766 9.01552V9.01552V9.01552C1.95766 9.01552 1.95766 9.01552 1.95766 9.01552C1.95766 9.01552 1.95766 9.01552 1.95766 9.01552C1.95766 9.01552 1.95766 9.01552 1.95766 9.01552V9.01552V9.01552C1.95766 9.01552 1.95766 9.01552 1.95766 9.01552C1.95766 9.01552 1.95766 9.01552 1.95766 9.01552C1.95766 9.01552 1.95766 9.01552 1.95766 9.01552C1.95766 9.01552 1.95766 9.01552 1.95766 9.01552V9.01552V9.01552C1.95766 9.01552 1.95766 9.01552 1.95766 9.01552C1.95766 9.01552 1.95766 9.01552 1.95766 9.01552C1.95766 9.01552 1.95766 9.01552 1.95766 9.01552V9.01553V9.01553C1.95766 9.01553 1.95766 9.01553 1.95766 9.01553C1.95766 9.01553 1.95766 9.01553 1.95766 9.01553C1.95766 9.01553 1.95766 9.01553 1.95766 9.01553C1.95766 9.01553 1.95766 9.01553 1.95766 9.01553V9.01553V9.01553C1.95766 9.01553 1.95766 9.01553 1.95766 9.01553C1.95766 9.01553 1.95766 9.01553 1.95766 9.01553C1.95766 9.01553 1.95766 9.01553 1.95766 9.01553V9.01553V9.01553C1.95766 9.01553 1.95766 9.01553 1.95766 9.01553C1.95766 9.01553 1.95766 9.01553 1.95766 9.01553C1.95766 9.01553 1.95766 9.01553 1.95766 9.01553C1.95766 9.01553 1.95766 9.01553 1.95766 9.01553V9.01553C1.95766 9.01553 1.95766 9.01553 1.95766 9.01553C1.95766 9.01553 1.95766 9.01553 1.95766 9.01553C1.95766 9.01553 1.95766 9.01553 1.95766 9.01553C1.95766 9.01553 1.95766 9.01553 1.95766 9.01554V9.01554V9.01554C1.95766 9.01554 1.95766 9.01554 1.95766 9.01554C1.95766 9.01554 1.95766 9.01554 1.95766 9.01554C1.95766 9.01554 1.95766 9.01554 1.95766 9.01554V9.01554V9.01554C1.95766 9.01554 1.95766 9.01554 1.95766 9.01554C1.95766 9.01554 1.95766 9.01554 1.95766 9.01554C1.95766 9.01554 1.95766 9.01554 1.95766 9.01554C1.95766 9.01554 1.95766 9.01554 1.95766 9.01554V9.01554V9.01554C1.95766 9.01554 1.95766 9.01554 1.95766 9.01554C1.95766 9.01554 1.95766 9.01554 1.95766 9.01554C1.95766 9.01554 1.95766 9.01554 1.95766 9.01554V9.01554V9.01554C1.95766 9.01554 1.95766 9.01554 1.95766 9.01554C1.95766 9.01554 1.95766 9.01554 1.95766 9.01554C1.95766 9.01554 1.95766 9.01554 1.95766 9.01555C1.95766 9.01555 1.95766 9.01555 1.95766 9.01555V9.01555C1.95766 9.01555 1.95766 9.01555 1.95766 9.01555C1.95766 9.01555 1.95766 9.01555 1.95766 9.01555C1.95766 9.01555 1.95766 9.01555 1.95766 9.01555C1.95766 9.01555 1.95766 9.01555 1.95766 9.01555V9.01555V9.01555C1.95766 9.01555 1.95766 9.01555 1.95766 9.01555C1.95766 9.01555 1.95766 9.01555 1.95766 9.01555C1.95766 9.01555 1.95766 9.01555 1.95766 9.01555C1.95766 9.01555 1.95766 9.01555 1.95766 9.01555V9.01555C1.95766 9.01555 1.95766 9.01555 1.95766 9.01555C1.95766 9.01555 1.95766 9.01555 1.95766 9.01555C1.95766 9.01555 1.95766 9.01555 1.95766 9.01555C1.95766 9.01555 1.95766 9.01555 1.95766 9.01555V9.01555V9.01555C1.95766 9.01555 1.95766 9.01555 1.95766 9.01555C1.95766 9.01556 1.95766 9.01556 1.95766 9.01556C1.95766 9.01556 1.95766 9.01556 1.95766 9.01556V9.01556V9.01556C1.95766 9.01556 1.95766 9.01556 1.95766 9.01556C1.95766 9.01556 1.95766 9.01556 1.95766 9.01556C1.95766 9.01556 1.95766 9.01556 1.95766 9.01556C1.95766 9.01556 1.95766 9.01556 1.95766 9.01556V9.01556V9.01556C1.95766 9.01556 1.95766 9.01556 1.95766 9.01556C1.95766 9.01556 1.95766 9.01556 1.95766 9.01556C1.95766 9.01556 1.95766 9.01556 1.95766 9.01556V9.01556V9.01556C1.95766 9.01556 1.95766 9.01556 1.95766 9.01556C1.95766 9.01556 1.95766 9.01556 1.95766 9.01556C1.95766 9.01556 1.95766 9.01556 1.95766 9.01556C1.95766 9.01556 1.95766 9.01556 1.95766 9.01556V9.01556C1.95766 9.01556 1.95766 9.01556 1.95766 9.01556C1.95766 9.01557 1.95766 9.01557 1.95766 9.01557C1.95766 9.01557 1.95766 9.01557 1.95766 9.01557C1.95766 9.01557 1.95766 9.01557 1.95766 9.01557V9.01557V9.01557C1.95766 9.01557 1.95766 9.01557 1.95766 9.01557C1.95766 9.01557 1.95766 9.01557 1.95766 9.01557C1.95766 9.01557 1.95766 9.01557 1.95766 9.01557C1.95766 9.01557 1.95766 9.01557 1.95766 9.01557V9.01557C1.95766 9.01557 1.95766 9.01557 1.95766 9.01557C1.95766 9.01557 1.95766 9.01557 1.95766 9.01557C1.95766 9.01557 1.95766 9.01557 1.95766 9.01557C1.95766 9.01557 1.95766 9.01557 1.95766 9.01557V9.01557V9.01557C1.95766 9.01557 1.95766 9.01557 1.95766 9.01557C1.95766 9.01557 1.95766 9.01557 1.95766 9.01557C1.95766 9.01557 1.95766 9.01557 1.95766 9.01557V9.01557V9.01557C1.95766 9.01558 1.95766 9.01558 1.95766 9.01558C1.95766 9.01558 1.95766 9.01558 1.95766 9.01558C1.95766 9.01558 1.95766 9.01558 1.95766 9.01558C1.95766 9.01558 1.95766 9.01558 1.95766 9.01558V9.01558V9.01558C1.95766 9.01558 1.95766 9.01558 1.95766 9.01558C1.95766 9.01558 1.95766 9.01558 1.95766 9.01558C1.95766 9.01558 1.95766 9.01558 1.95766 9.01558V9.01558V9.01558C1.95766 9.01558 1.95766 9.01558 1.95766 9.01558C1.95766 9.01558 1.95766 9.01558 1.95766 9.01558C1.95766 9.01558 1.95766 9.01558 1.95766 9.01558C1.95766 9.01558 1.95766 9.01558 1.95766 9.01558V9.01558C1.95766 9.01558 1.95766 9.01558 1.95766 9.01558C1.95766 9.01558 1.95766 9.01558 1.95766 9.01558C1.95766 9.01558 1.95766 9.01558 1.95766 9.01558C1.95766 9.01558 1.95766 9.01558 1.95766 9.01558V9.01558V9.01559C1.95766 9.01559 1.95766 9.01559 1.95766 9.01559C1.95766 9.01559 1.95766 9.01559 1.95766 9.01559C1.95766 9.01559 1.95766 9.01559 1.95766 9.01559V9.01559V9.01559C1.95766 9.01559 1.95766 9.01559 1.95766 9.01559C1.95766 9.01559 1.95766 9.01559 1.95766 9.01559C1.95766 9.01559 1.95766 9.01559 1.95766 9.01559C1.95766 9.01559 1.95766 9.01559 1.95766 9.01559V9.01559V9.01559C1.95766 9.01559 1.95766 9.01559 1.95766 9.01559C1.95766 9.01559 1.95766 9.01559 1.95766 9.01559C1.95766 9.01559 1.95766 9.01559 1.95766 9.01559V9.01559V9.01559C1.95766 9.01559 1.95766 9.01559 1.95766 9.01559C1.95766 9.01559 1.95766 9.01559 1.95766 9.01559C1.95766 9.01559 1.95766 9.01559 1.95766 9.01559C1.95766 9.01559 1.95766 9.01559 1.95766 9.01559V9.0156V9.0156C1.95766 9.0156 1.95766 9.0156 1.95766 9.0156C1.95766 9.0156 1.95766 9.0156 1.95766 9.0156C1.95766 9.0156 1.95766 9.0156 1.95766 9.0156V9.0156V9.0156C1.95766 9.0156 1.95766 9.0156 1.95766 9.0156C1.95766 9.0156 1.95766 9.0156 1.95766 9.0156C1.95766 9.0156 1.95766 9.0156 1.95766 9.0156C1.95766 9.0156 1.95766 9.0156 1.95766 9.0156V9.0156C1.95766 9.0156 1.95766 9.0156 1.95766 9.0156C1.95766 9.0156 1.95766 9.0156 1.95766 9.0156C1.95766 9.0156 1.95766 9.0156 1.95766 9.0156C1.95766 9.0156 1.95766 9.0156 1.95766 9.0156V9.0156V9.0156C1.95766 9.0156 1.95766 9.0156 1.95766 9.0156C1.95766 9.0156 1.95766 9.0156 1.95766 9.0156C1.95766 9.0156 1.95766 9.0156 1.95766 9.0156V9.01561V9.01561C1.95766 9.01561 1.95766 9.01561 1.95766 9.01561C1.95766 9.01561 1.95766 9.01561 1.95766 9.01561C1.95766 9.01561 1.95766 9.01561 1.95766 9.01561C1.95766 9.01561 1.95766 9.01561 1.95766 9.01561V9.01561V9.01561C1.95766 9.01561 1.95766 9.01561 1.95766 9.01561C1.95766 9.01561 1.95766 9.01561 1.95766 9.01561C1.95766 9.01561 1.95766 9.01561 1.95766 9.01561V9.01561V9.01561C1.95766 9.01561 1.95766 9.01561 1.95766 9.01561C1.95766 9.01561 1.95766 9.01561 1.95766 9.01561C1.95766 9.01561 1.95766 9.01561 1.95766 9.01561C1.95766 9.01561 1.95766 9.01561 1.95766 9.01561V9.01561V9.01561C1.95766 9.01561 1.95766 9.01561 1.95766 9.01561C1.95766 9.01561 1.95766 9.01561 1.95766 9.01561C1.95766 9.01561 1.95766 9.01561 1.95766 9.01562V9.01562V9.01562C1.95766 9.01562 1.95766 9.01562 1.95766 9.01562C1.95766 9.01562 1.95766 9.01562 1.95766 9.01562C1.95766 9.01562 1.95766 9.01562 1.95766 9.01562C1.95766 9.01562 1.95766 9.01562 1.95766 9.01562V9.01562C1.95766 9.01562 1.95766 9.01562 1.95766 9.01562C1.95766 9.01562 1.95766 9.01562 1.95766 9.01562C1.95766 9.01562 1.95766 9.01562 1.95766 9.01562C1.95766 9.01562 1.95766 9.01562 1.95766 9.01562V9.01562V9.01562C1.95766 9.01562 1.95766 9.01562 1.95766 9.01562C1.95766 9.01562 1.95766 9.01562 1.95766 9.01562C1.95766 9.01562 1.95766 9.01562 1.95766 9.01562V9.01562V9.01562C1.95766 9.01562 1.95766 9.01562 1.95766 9.01562C1.95766 9.01562 1.95766 9.01562 1.95766 9.01562H0.150116ZM0.150116 9.01549C0.150116 4.1589 3.91331 0.147007 8.6456 0.147007V1.95456C4.99231 1.95456 1.95766 5.0745 1.95766 9.01549H0.150116ZM8.6456 0.147007C13.3779 0.147007 17.1411 4.1589 17.1411 9.01549H15.3335C15.3335 5.0745 12.2989 1.95456 8.6456 1.95456V0.147007ZM17.1411 9.01549C17.1411 9.01549 17.1411 9.01549 17.1411 9.01549C17.1411 9.01549 17.1411 9.01549 17.1411 9.01549V9.01549V9.01549C17.1411 9.01549 17.1411 9.01549 17.1411 9.01549C17.1411 9.01549 17.1411 9.01549 17.1411 9.01549C17.1411 9.01549 17.1411 9.01549 17.1411 9.01549V9.01549V9.01549C17.1411 9.0155 17.1411 9.0155 17.1411 9.0155C17.1411 9.0155 17.1411 9.0155 17.1411 9.0155C17.1411 9.0155 17.1411 9.0155 17.1411 9.0155C17.1411 9.0155 17.1411 9.0155 17.1411 9.0155V9.0155C17.1411 9.0155 17.1411 9.0155 17.1411 9.0155C17.1411 9.0155 17.1411 9.0155 17.1411 9.0155C17.1411 9.0155 17.1411 9.0155 17.1411 9.0155C17.1411 9.0155 17.1411 9.0155 17.1411 9.0155V9.0155V9.0155C17.1411 9.0155 17.1411 9.0155 17.1411 9.0155C17.1411 9.0155 17.1411 9.0155 17.1411 9.0155C17.1411 9.0155 17.1411 9.0155 17.1411 9.0155V9.0155V9.0155C17.1411 9.0155 17.1411 9.0155 17.1411 9.0155C17.1411 9.0155 17.1411 9.0155 17.1411 9.0155C17.1411 9.0155 17.1411 9.0155 17.1411 9.0155C17.1411 9.0155 17.1411 9.0155 17.1411 9.0155V9.0155V9.01551C17.1411 9.01551 17.1411 9.01551 17.1411 9.01551C17.1411 9.01551 17.1411 9.01551 17.1411 9.01551C17.1411 9.01551 17.1411 9.01551 17.1411 9.01551V9.01551V9.01551C17.1411 9.01551 17.1411 9.01551 17.1411 9.01551C17.1411 9.01551 17.1411 9.01551 17.1411 9.01551C17.1411 9.01551 17.1411 9.01551 17.1411 9.01551C17.1411 9.01551 17.1411 9.01551 17.1411 9.01551V9.01551V9.01551C17.1411 9.01551 17.1411 9.01551 17.1411 9.01551C17.1411 9.01551 17.1411 9.01551 17.1411 9.01551C17.1411 9.01551 17.1411 9.01551 17.1411 9.01551V9.01551V9.01551C17.1411 9.01551 17.1411 9.01551 17.1411 9.01551C17.1411 9.01551 17.1411 9.01551 17.1411 9.01551C17.1411 9.01551 17.1411 9.01551 17.1411 9.01551C17.1411 9.01551 17.1411 9.01551 17.1411 9.01551V9.01552C17.1411 9.01552 17.1411 9.01552 17.1411 9.01552C17.1411 9.01552 17.1411 9.01552 17.1411 9.01552C17.1411 9.01552 17.1411 9.01552 17.1411 9.01552C17.1411 9.01552 17.1411 9.01552 17.1411 9.01552V9.01552V9.01552C17.1411 9.01552 17.1411 9.01552 17.1411 9.01552C17.1411 9.01552 17.1411 9.01552 17.1411 9.01552C17.1411 9.01552 17.1411 9.01552 17.1411 9.01552V9.01552V9.01552C17.1411 9.01552 17.1411 9.01552 17.1411 9.01552C17.1411 9.01552 17.1411 9.01552 17.1411 9.01552C17.1411 9.01552 17.1411 9.01552 17.1411 9.01552C17.1411 9.01552 17.1411 9.01552 17.1411 9.01552V9.01552V9.01552C17.1411 9.01552 17.1411 9.01552 17.1411 9.01552C17.1411 9.01552 17.1411 9.01552 17.1411 9.01552C17.1411 9.01552 17.1411 9.01552 17.1411 9.01552V9.01553V9.01553C17.1411 9.01553 17.1411 9.01553 17.1411 9.01553C17.1411 9.01553 17.1411 9.01553 17.1411 9.01553C17.1411 9.01553 17.1411 9.01553 17.1411 9.01553C17.1411 9.01553 17.1411 9.01553 17.1411 9.01553V9.01553V9.01553C17.1411 9.01553 17.1411 9.01553 17.1411 9.01553C17.1411 9.01553 17.1411 9.01553 17.1411 9.01553C17.1411 9.01553 17.1411 9.01553 17.1411 9.01553V9.01553V9.01553C17.1411 9.01553 17.1411 9.01553 17.1411 9.01553C17.1411 9.01553 17.1411 9.01553 17.1411 9.01553C17.1411 9.01553 17.1411 9.01553 17.1411 9.01553C17.1411 9.01553 17.1411 9.01553 17.1411 9.01553V9.01553C17.1411 9.01553 17.1411 9.01553 17.1411 9.01553C17.1411 9.01553 17.1411 9.01553 17.1411 9.01553C17.1411 9.01553 17.1411 9.01553 17.1411 9.01553C17.1411 9.01553 17.1411 9.01553 17.1411 9.01554V9.01554V9.01554C17.1411 9.01554 17.1411 9.01554 17.1411 9.01554C17.1411 9.01554 17.1411 9.01554 17.1411 9.01554C17.1411 9.01554 17.1411 9.01554 17.1411 9.01554V9.01554V9.01554C17.1411 9.01554 17.1411 9.01554 17.1411 9.01554C17.1411 9.01554 17.1411 9.01554 17.1411 9.01554C17.1411 9.01554 17.1411 9.01554 17.1411 9.01554C17.1411 9.01554 17.1411 9.01554 17.1411 9.01554V9.01554V9.01554C17.1411 9.01554 17.1411 9.01554 17.1411 9.01554C17.1411 9.01554 17.1411 9.01554 17.1411 9.01554C17.1411 9.01554 17.1411 9.01554 17.1411 9.01554V9.01554V9.01554C17.1411 9.01554 17.1411 9.01554 17.1411 9.01554C17.1411 9.01554 17.1411 9.01554 17.1411 9.01554C17.1411 9.01554 17.1411 9.01554 17.1411 9.01555C17.1411 9.01555 17.1411 9.01555 17.1411 9.01555V9.01555C17.1411 9.01555 17.1411 9.01555 17.1411 9.01555C17.1411 9.01555 17.1411 9.01555 17.1411 9.01555C17.1411 9.01555 17.1411 9.01555 17.1411 9.01555C17.1411 9.01555 17.1411 9.01555 17.1411 9.01555V9.01555V9.01555C17.1411 9.01555 17.1411 9.01555 17.1411 9.01555C17.1411 9.01555 17.1411 9.01555 17.1411 9.01555C17.1411 9.01555 17.1411 9.01555 17.1411 9.01555C17.1411 9.01555 17.1411 9.01555 17.1411 9.01555V9.01555C17.1411 9.01555 17.1411 9.01555 17.1411 9.01555C17.1411 9.01555 17.1411 9.01555 17.1411 9.01555C17.1411 9.01555 17.1411 9.01555 17.1411 9.01555C17.1411 9.01555 17.1411 9.01555 17.1411 9.01555V9.01555V9.01555C17.1411 9.01555 17.1411 9.01555 17.1411 9.01555C17.1411 9.01556 17.1411 9.01556 17.1411 9.01556C17.1411 9.01556 17.1411 9.01556 17.1411 9.01556V9.01556V9.01556C17.1411 9.01556 17.1411 9.01556 17.1411 9.01556C17.1411 9.01556 17.1411 9.01556 17.1411 9.01556C17.1411 9.01556 17.1411 9.01556 17.1411 9.01556C17.1411 9.01556 17.1411 9.01556 17.1411 9.01556V9.01556V9.01556C17.1411 9.01556 17.1411 9.01556 17.1411 9.01556C17.1411 9.01556 17.1411 9.01556 17.1411 9.01556C17.1411 9.01556 17.1411 9.01556 17.1411 9.01556V9.01556V9.01556C17.1411 9.01556 17.1411 9.01556 17.1411 9.01556C17.1411 9.01556 17.1411 9.01556 17.1411 9.01556C17.1411 9.01556 17.1411 9.01556 17.1411 9.01556C17.1411 9.01556 17.1411 9.01556 17.1411 9.01556V9.01556C17.1411 9.01556 17.1411 9.01556 17.1411 9.01556C17.1411 9.01557 17.1411 9.01557 17.1411 9.01557C17.1411 9.01557 17.1411 9.01557 17.1411 9.01557C17.1411 9.01557 17.1411 9.01557 17.1411 9.01557V9.01557V9.01557C17.1411 9.01557 17.1411 9.01557 17.1411 9.01557C17.1411 9.01557 17.1411 9.01557 17.1411 9.01557C17.1411 9.01557 17.1411 9.01557 17.1411 9.01557C17.1411 9.01557 17.1411 9.01557 17.1411 9.01557V9.01557C17.1411 9.01557 17.1411 9.01557 17.1411 9.01557C17.1411 9.01557 17.1411 9.01557 17.1411 9.01557C17.1411 9.01557 17.1411 9.01557 17.1411 9.01557C17.1411 9.01557 17.1411 9.01557 17.1411 9.01557V9.01557V9.01557C17.1411 9.01557 17.1411 9.01557 17.1411 9.01557C17.1411 9.01557 17.1411 9.01557 17.1411 9.01557C17.1411 9.01557 17.1411 9.01557 17.1411 9.01557V9.01557V9.01557C17.1411 9.01558 17.1411 9.01558 17.1411 9.01558C17.1411 9.01558 17.1411 9.01558 17.1411 9.01558C17.1411 9.01558 17.1411 9.01558 17.1411 9.01558C17.1411 9.01558 17.1411 9.01558 17.1411 9.01558V9.01558V9.01558C17.1411 9.01558 17.1411 9.01558 17.1411 9.01558C17.1411 9.01558 17.1411 9.01558 17.1411 9.01558C17.1411 9.01558 17.1411 9.01558 17.1411 9.01558V9.01558V9.01558C17.1411 9.01558 17.1411 9.01558 17.1411 9.01558C17.1411 9.01558 17.1411 9.01558 17.1411 9.01558C17.1411 9.01558 17.1411 9.01558 17.1411 9.01558C17.1411 9.01558 17.1411 9.01558 17.1411 9.01558V9.01558C17.1411 9.01558 17.1411 9.01558 17.1411 9.01558C17.1411 9.01558 17.1411 9.01558 17.1411 9.01558C17.1411 9.01558 17.1411 9.01558 17.1411 9.01558C17.1411 9.01558 17.1411 9.01558 17.1411 9.01558V9.01558V9.01559C17.1411 9.01559 17.1411 9.01559 17.1411 9.01559C17.1411 9.01559 17.1411 9.01559 17.1411 9.01559C17.1411 9.01559 17.1411 9.01559 17.1411 9.01559V9.01559V9.01559C17.1411 9.01559 17.1411 9.01559 17.1411 9.01559C17.1411 9.01559 17.1411 9.01559 17.1411 9.01559C17.1411 9.01559 17.1411 9.01559 17.1411 9.01559C17.1411 9.01559 17.1411 9.01559 17.1411 9.01559V9.01559V9.01559C17.1411 9.01559 17.1411 9.01559 17.1411 9.01559C17.1411 9.01559 17.1411 9.01559 17.1411 9.01559C17.1411 9.01559 17.1411 9.01559 17.1411 9.01559V9.01559V9.01559C17.1411 9.01559 17.1411 9.01559 17.1411 9.01559C17.1411 9.01559 17.1411 9.01559 17.1411 9.01559C17.1411 9.01559 17.1411 9.01559 17.1411 9.01559C17.1411 9.01559 17.1411 9.01559 17.1411 9.01559V9.0156V9.0156C17.1411 9.0156 17.1411 9.0156 17.1411 9.0156C17.1411 9.0156 17.1411 9.0156 17.1411 9.0156C17.1411 9.0156 17.1411 9.0156 17.1411 9.0156V9.0156V9.0156C17.1411 9.0156 17.1411 9.0156 17.1411 9.0156C17.1411 9.0156 17.1411 9.0156 17.1411 9.0156C17.1411 9.0156 17.1411 9.0156 17.1411 9.0156C17.1411 9.0156 17.1411 9.0156 17.1411 9.0156V9.0156C17.1411 9.0156 17.1411 9.0156 17.1411 9.0156C17.1411 9.0156 17.1411 9.0156 17.1411 9.0156C17.1411 9.0156 17.1411 9.0156 17.1411 9.0156C17.1411 9.0156 17.1411 9.0156 17.1411 9.0156V9.0156V9.0156C17.1411 9.0156 17.1411 9.0156 17.1411 9.0156C17.1411 9.0156 17.1411 9.0156 17.1411 9.0156C17.1411 9.0156 17.1411 9.0156 17.1411 9.0156V9.01561V9.01561C17.1411 9.01561 17.1411 9.01561 17.1411 9.01561C17.1411 9.01561 17.1411 9.01561 17.1411 9.01561C17.1411 9.01561 17.1411 9.01561 17.1411 9.01561C17.1411 9.01561 17.1411 9.01561 17.1411 9.01561V9.01561V9.01561C17.1411 9.01561 17.1411 9.01561 17.1411 9.01561C17.1411 9.01561 17.1411 9.01561 17.1411 9.01561C17.1411 9.01561 17.1411 9.01561 17.1411 9.01561V9.01561V9.01561C17.1411 9.01561 17.1411 9.01561 17.1411 9.01561C17.1411 9.01561 17.1411 9.01561 17.1411 9.01561C17.1411 9.01561 17.1411 9.01561 17.1411 9.01561C17.1411 9.01561 17.1411 9.01561 17.1411 9.01561V9.01561V9.01561C17.1411 9.01561 17.1411 9.01561 17.1411 9.01561C17.1411 9.01561 17.1411 9.01561 17.1411 9.01561C17.1411 9.01561 17.1411 9.01561 17.1411 9.01562V9.01562V9.01562C17.1411 9.01562 17.1411 9.01562 17.1411 9.01562C17.1411 9.01562 17.1411 9.01562 17.1411 9.01562C17.1411 9.01562 17.1411 9.01562 17.1411 9.01562C17.1411 9.01562 17.1411 9.01562 17.1411 9.01562V9.01562C17.1411 9.01562 17.1411 9.01562 17.1411 9.01562C17.1411 9.01562 17.1411 9.01562 17.1411 9.01562C17.1411 9.01562 17.1411 9.01562 17.1411 9.01562C17.1411 9.01562 17.1411 9.01562 17.1411 9.01562V9.01562V9.01562C17.1411 9.01562 17.1411 9.01562 17.1411 9.01562C17.1411 9.01562 17.1411 9.01562 17.1411 9.01562C17.1411 9.01562 17.1411 9.01562 17.1411 9.01562V9.01562V9.01562C17.1411 9.01562 17.1411 9.01562 17.1411 9.01562C17.1411 9.01562 17.1411 9.01562 17.1411 9.01562H15.3335C15.3335 9.01562 15.3335 9.01562 15.3335 9.01562C15.3335 9.01562 15.3335 9.01562 15.3335 9.01562V9.01562V9.01562C15.3335 9.01562 15.3335 9.01562 15.3335 9.01562C15.3335 9.01562 15.3335 9.01562 15.3335 9.01562C15.3335 9.01562 15.3335 9.01562 15.3335 9.01562V9.01562V9.01562C15.3335 9.01562 15.3335 9.01562 15.3335 9.01562C15.3335 9.01562 15.3335 9.01562 15.3335 9.01562C15.3335 9.01562 15.3335 9.01562 15.3335 9.01562C15.3335 9.01562 15.3335 9.01562 15.3335 9.01562V9.01562C15.3335 9.01562 15.3335 9.01562 15.3335 9.01562C15.3335 9.01562 15.3335 9.01562 15.3335 9.01562C15.3335 9.01562 15.3335 9.01562 15.3335 9.01562C15.3335 9.01562 15.3335 9.01562 15.3335 9.01562V9.01562V9.01562C15.3335 9.01561 15.3335 9.01561 15.3335 9.01561C15.3335 9.01561 15.3335 9.01561 15.3335 9.01561C15.3335 9.01561 15.3335 9.01561 15.3335 9.01561V9.01561V9.01561C15.3335 9.01561 15.3335 9.01561 15.3335 9.01561C15.3335 9.01561 15.3335 9.01561 15.3335 9.01561C15.3335 9.01561 15.3335 9.01561 15.3335 9.01561C15.3335 9.01561 15.3335 9.01561 15.3335 9.01561V9.01561V9.01561C15.3335 9.01561 15.3335 9.01561 15.3335 9.01561C15.3335 9.01561 15.3335 9.01561 15.3335 9.01561C15.3335 9.01561 15.3335 9.01561 15.3335 9.01561V9.01561V9.01561C15.3335 9.01561 15.3335 9.01561 15.3335 9.01561C15.3335 9.01561 15.3335 9.01561 15.3335 9.01561C15.3335 9.01561 15.3335 9.01561 15.3335 9.01561C15.3335 9.01561 15.3335 9.01561 15.3335 9.01561V9.01561V9.0156C15.3335 9.0156 15.3335 9.0156 15.3335 9.0156C15.3335 9.0156 15.3335 9.0156 15.3335 9.0156C15.3335 9.0156 15.3335 9.0156 15.3335 9.0156V9.0156V9.0156C15.3335 9.0156 15.3335 9.0156 15.3335 9.0156C15.3335 9.0156 15.3335 9.0156 15.3335 9.0156C15.3335 9.0156 15.3335 9.0156 15.3335 9.0156C15.3335 9.0156 15.3335 9.0156 15.3335 9.0156V9.0156C15.3335 9.0156 15.3335 9.0156 15.3335 9.0156C15.3335 9.0156 15.3335 9.0156 15.3335 9.0156C15.3335 9.0156 15.3335 9.0156 15.3335 9.0156C15.3335 9.0156 15.3335 9.0156 15.3335 9.0156V9.0156V9.0156C15.3335 9.0156 15.3335 9.0156 15.3335 9.0156C15.3335 9.0156 15.3335 9.0156 15.3335 9.0156C15.3335 9.0156 15.3335 9.0156 15.3335 9.0156V9.0156V9.01559C15.3335 9.01559 15.3335 9.01559 15.3335 9.01559C15.3335 9.01559 15.3335 9.01559 15.3335 9.01559C15.3335 9.01559 15.3335 9.01559 15.3335 9.01559C15.3335 9.01559 15.3335 9.01559 15.3335 9.01559V9.01559V9.01559C15.3335 9.01559 15.3335 9.01559 15.3335 9.01559C15.3335 9.01559 15.3335 9.01559 15.3335 9.01559C15.3335 9.01559 15.3335 9.01559 15.3335 9.01559V9.01559V9.01559C15.3335 9.01559 15.3335 9.01559 15.3335 9.01559C15.3335 9.01559 15.3335 9.01559 15.3335 9.01559C15.3335 9.01559 15.3335 9.01559 15.3335 9.01559C15.3335 9.01559 15.3335 9.01559 15.3335 9.01559V9.01559V9.01559C15.3335 9.01559 15.3335 9.01559 15.3335 9.01559C15.3335 9.01559 15.3335 9.01559 15.3335 9.01559C15.3335 9.01559 15.3335 9.01559 15.3335 9.01559V9.01558V9.01558C15.3335 9.01558 15.3335 9.01558 15.3335 9.01558C15.3335 9.01558 15.3335 9.01558 15.3335 9.01558C15.3335 9.01558 15.3335 9.01558 15.3335 9.01558C15.3335 9.01558 15.3335 9.01558 15.3335 9.01558V9.01558C15.3335 9.01558 15.3335 9.01558 15.3335 9.01558C15.3335 9.01558 15.3335 9.01558 15.3335 9.01558C15.3335 9.01558 15.3335 9.01558 15.3335 9.01558C15.3335 9.01558 15.3335 9.01558 15.3335 9.01558V9.01558V9.01558C15.3335 9.01558 15.3335 9.01558 15.3335 9.01558C15.3335 9.01558 15.3335 9.01558 15.3335 9.01558C15.3335 9.01558 15.3335 9.01558 15.3335 9.01558V9.01558V9.01558C15.3335 9.01558 15.3335 9.01558 15.3335 9.01558C15.3335 9.01558 15.3335 9.01558 15.3335 9.01558C15.3335 9.01558 15.3335 9.01558 15.3335 9.01558C15.3335 9.01558 15.3335 9.01558 15.3335 9.01557V9.01557V9.01557C15.3335 9.01557 15.3335 9.01557 15.3335 9.01557C15.3335 9.01557 15.3335 9.01557 15.3335 9.01557C15.3335 9.01557 15.3335 9.01557 15.3335 9.01557V9.01557V9.01557C15.3335 9.01557 15.3335 9.01557 15.3335 9.01557C15.3335 9.01557 15.3335 9.01557 15.3335 9.01557C15.3335 9.01557 15.3335 9.01557 15.3335 9.01557C15.3335 9.01557 15.3335 9.01557 15.3335 9.01557V9.01557C15.3335 9.01557 15.3335 9.01557 15.3335 9.01557C15.3335 9.01557 15.3335 9.01557 15.3335 9.01557C15.3335 9.01557 15.3335 9.01557 15.3335 9.01557C15.3335 9.01557 15.3335 9.01557 15.3335 9.01557V9.01557V9.01557C15.3335 9.01557 15.3335 9.01557 15.3335 9.01557C15.3335 9.01557 15.3335 9.01557 15.3335 9.01557C15.3335 9.01557 15.3335 9.01557 15.3335 9.01556C15.3335 9.01556 15.3335 9.01556 15.3335 9.01556V9.01556C15.3335 9.01556 15.3335 9.01556 15.3335 9.01556C15.3335 9.01556 15.3335 9.01556 15.3335 9.01556C15.3335 9.01556 15.3335 9.01556 15.3335 9.01556C15.3335 9.01556 15.3335 9.01556 15.3335 9.01556V9.01556V9.01556C15.3335 9.01556 15.3335 9.01556 15.3335 9.01556C15.3335 9.01556 15.3335 9.01556 15.3335 9.01556C15.3335 9.01556 15.3335 9.01556 15.3335 9.01556V9.01556V9.01556C15.3335 9.01556 15.3335 9.01556 15.3335 9.01556C15.3335 9.01556 15.3335 9.01556 15.3335 9.01556C15.3335 9.01556 15.3335 9.01556 15.3335 9.01556C15.3335 9.01556 15.3335 9.01556 15.3335 9.01556V9.01556V9.01556C15.3335 9.01556 15.3335 9.01556 15.3335 9.01556C15.3335 9.01556 15.3335 9.01556 15.3335 9.01555C15.3335 9.01555 15.3335 9.01555 15.3335 9.01555V9.01555V9.01555C15.3335 9.01555 15.3335 9.01555 15.3335 9.01555C15.3335 9.01555 15.3335 9.01555 15.3335 9.01555C15.3335 9.01555 15.3335 9.01555 15.3335 9.01555C15.3335 9.01555 15.3335 9.01555 15.3335 9.01555V9.01555C15.3335 9.01555 15.3335 9.01555 15.3335 9.01555C15.3335 9.01555 15.3335 9.01555 15.3335 9.01555C15.3335 9.01555 15.3335 9.01555 15.3335 9.01555C15.3335 9.01555 15.3335 9.01555 15.3335 9.01555V9.01555V9.01555C15.3335 9.01555 15.3335 9.01555 15.3335 9.01555C15.3335 9.01555 15.3335 9.01555 15.3335 9.01555C15.3335 9.01555 15.3335 9.01555 15.3335 9.01555C15.3335 9.01555 15.3335 9.01555 15.3335 9.01555V9.01555C15.3335 9.01555 15.3335 9.01555 15.3335 9.01555C15.3335 9.01554 15.3335 9.01554 15.3335 9.01554C15.3335 9.01554 15.3335 9.01554 15.3335 9.01554C15.3335 9.01554 15.3335 9.01554 15.3335 9.01554V9.01554V9.01554C15.3335 9.01554 15.3335 9.01554 15.3335 9.01554C15.3335 9.01554 15.3335 9.01554 15.3335 9.01554C15.3335 9.01554 15.3335 9.01554 15.3335 9.01554V9.01554V9.01554C15.3335 9.01554 15.3335 9.01554 15.3335 9.01554C15.3335 9.01554 15.3335 9.01554 15.3335 9.01554C15.3335 9.01554 15.3335 9.01554 15.3335 9.01554C15.3335 9.01554 15.3335 9.01554 15.3335 9.01554V9.01554V9.01554C15.3335 9.01554 15.3335 9.01554 15.3335 9.01554C15.3335 9.01554 15.3335 9.01554 15.3335 9.01554C15.3335 9.01554 15.3335 9.01554 15.3335 9.01554V9.01554V9.01554C15.3335 9.01553 15.3335 9.01553 15.3335 9.01553C15.3335 9.01553 15.3335 9.01553 15.3335 9.01553C15.3335 9.01553 15.3335 9.01553 15.3335 9.01553C15.3335 9.01553 15.3335 9.01553 15.3335 9.01553V9.01553C15.3335 9.01553 15.3335 9.01553 15.3335 9.01553C15.3335 9.01553 15.3335 9.01553 15.3335 9.01553C15.3335 9.01553 15.3335 9.01553 15.3335 9.01553C15.3335 9.01553 15.3335 9.01553 15.3335 9.01553V9.01553V9.01553C15.3335 9.01553 15.3335 9.01553 15.3335 9.01553C15.3335 9.01553 15.3335 9.01553 15.3335 9.01553C15.3335 9.01553 15.3335 9.01553 15.3335 9.01553V9.01553V9.01553C15.3335 9.01553 15.3335 9.01553 15.3335 9.01553C15.3335 9.01553 15.3335 9.01553 15.3335 9.01553C15.3335 9.01553 15.3335 9.01553 15.3335 9.01553C15.3335 9.01553 15.3335 9.01553 15.3335 9.01553V9.01553V9.01552C15.3335 9.01552 15.3335 9.01552 15.3335 9.01552C15.3335 9.01552 15.3335 9.01552 15.3335 9.01552C15.3335 9.01552 15.3335 9.01552 15.3335 9.01552V9.01552V9.01552C15.3335 9.01552 15.3335 9.01552 15.3335 9.01552C15.3335 9.01552 15.3335 9.01552 15.3335 9.01552C15.3335 9.01552 15.3335 9.01552 15.3335 9.01552C15.3335 9.01552 15.3335 9.01552 15.3335 9.01552V9.01552V9.01552C15.3335 9.01552 15.3335 9.01552 15.3335 9.01552C15.3335 9.01552 15.3335 9.01552 15.3335 9.01552C15.3335 9.01552 15.3335 9.01552 15.3335 9.01552V9.01552V9.01552C15.3335 9.01552 15.3335 9.01552 15.3335 9.01552C15.3335 9.01552 15.3335 9.01552 15.3335 9.01552C15.3335 9.01552 15.3335 9.01552 15.3335 9.01552C15.3335 9.01552 15.3335 9.01552 15.3335 9.01552V9.01551C15.3335 9.01551 15.3335 9.01551 15.3335 9.01551C15.3335 9.01551 15.3335 9.01551 15.3335 9.01551C15.3335 9.01551 15.3335 9.01551 15.3335 9.01551C15.3335 9.01551 15.3335 9.01551 15.3335 9.01551V9.01551V9.01551C15.3335 9.01551 15.3335 9.01551 15.3335 9.01551C15.3335 9.01551 15.3335 9.01551 15.3335 9.01551C15.3335 9.01551 15.3335 9.01551 15.3335 9.01551V9.01551V9.01551C15.3335 9.01551 15.3335 9.01551 15.3335 9.01551C15.3335 9.01551 15.3335 9.01551 15.3335 9.01551C15.3335 9.01551 15.3335 9.01551 15.3335 9.01551C15.3335 9.01551 15.3335 9.01551 15.3335 9.01551V9.01551V9.01551C15.3335 9.01551 15.3335 9.01551 15.3335 9.01551C15.3335 9.01551 15.3335 9.01551 15.3335 9.01551C15.3335 9.01551 15.3335 9.01551 15.3335 9.01551V9.0155V9.0155C15.3335 9.0155 15.3335 9.0155 15.3335 9.0155C15.3335 9.0155 15.3335 9.0155 15.3335 9.0155C15.3335 9.0155 15.3335 9.0155 15.3335 9.0155C15.3335 9.0155 15.3335 9.0155 15.3335 9.0155V9.0155V9.0155C15.3335 9.0155 15.3335 9.0155 15.3335 9.0155C15.3335 9.0155 15.3335 9.0155 15.3335 9.0155C15.3335 9.0155 15.3335 9.0155 15.3335 9.0155V9.0155V9.0155C15.3335 9.0155 15.3335 9.0155 15.3335 9.0155C15.3335 9.0155 15.3335 9.0155 15.3335 9.0155C15.3335 9.0155 15.3335 9.0155 15.3335 9.0155C15.3335 9.0155 15.3335 9.0155 15.3335 9.0155V9.0155C15.3335 9.0155 15.3335 9.0155 15.3335 9.0155C15.3335 9.0155 15.3335 9.0155 15.3335 9.0155C15.3335 9.0155 15.3335 9.0155 15.3335 9.0155C15.3335 9.0155 15.3335 9.0155 15.3335 9.01549V9.01549V9.01549C15.3335 9.01549 15.3335 9.01549 15.3335 9.01549C15.3335 9.01549 15.3335 9.01549 15.3335 9.01549C15.3335 9.01549 15.3335 9.01549 15.3335 9.01549V9.01549V9.01549C15.3335 9.01549 15.3335 9.01549 15.3335 9.01549C15.3335 9.01549 15.3335 9.01549 15.3335 9.01549H17.1411Z"
    fill="currentColor" />
  <path d="M6.63086 9.82816V6.90234M10.3492 9.82816V6.90234" stroke="currentColor" stroke-width="1.80755"
    stroke-linecap="round" stroke-linejoin="round" />
</svg>