<svg width="16" height="16" viewBox="0 0 16 16" fill="none" xmlns="http://www.w3.org/2000/svg">
  <g clip-path="url(#clip0_2392_17322)">
    <path
      d="M7.40453 9.63194C7.44324 9.71095 7.49721 9.78151 7.56333 9.83956C7.62945 9.89761 7.7064 9.942 7.78976 9.97017C7.87311 9.99834 7.96122 10.0097 8.049 10.0037C8.13677 9.99763 8.22249 9.97427 8.30119 9.93494C8.3799 9.89561 8.45004 9.84109 8.50757 9.77452C8.5651 9.70795 8.60889 9.63065 8.63641 9.54708C8.66392 9.46351 8.67463 9.37532 8.66789 9.28759C8.66116 9.19986 8.63713 9.11434 8.59719 9.03594L4.93052 1.70261C4.87517 1.59184 4.79005 1.49869 4.68472 1.43358C4.5794 1.36847 4.45802 1.33398 4.33419 1.33398C4.21036 1.33398 4.08899 1.36847 3.98366 1.43358C3.87833 1.49869 3.79322 1.59184 3.73786 1.70261L0.0711913 9.03594C0.0312485 9.11434 0.0072191 9.19986 0.000488601 9.28759C-0.0062419 9.37532 0.00445962 9.46351 0.0319762 9.54708C0.0594927 9.63065 0.10328 9.70795 0.160813 9.77452C0.218346 9.84109 0.288488 9.89561 0.367193 9.93494C0.445898 9.97427 0.53161 9.99763 0.619387 10.0037C0.707164 10.0097 0.79527 9.99834 0.878625 9.97017C0.96198 9.942 1.03893 9.89761 1.10505 9.83956C1.17117 9.78151 1.22514 9.71095 1.26386 9.63194L2.41252 7.33394H6.25519L7.40453 9.63194ZM3.07919 6.00061L4.33319 3.49127L5.58853 6.00061H3.07919Z"
      fill="currentColor" />
    <path
      d="M15.8044 7.52918C15.6794 7.40419 15.5098 7.33398 15.3331 7.33398C15.1563 7.33398 14.9867 7.40419 14.8617 7.52918L8.6664 13.7245L5.8044 10.8625C5.7429 10.7988 5.66933 10.748 5.588 10.7131C5.50666 10.6782 5.41918 10.6598 5.33066 10.659C5.24214 10.6582 5.15436 10.6751 5.07243 10.7086C4.99049 10.7421 4.91606 10.7916 4.85347 10.8542C4.79087 10.9168 4.74137 10.9913 4.70785 11.0732C4.67433 11.1551 4.65746 11.2429 4.65823 11.3314C4.659 11.42 4.67739 11.5074 4.71233 11.5888C4.74727 11.6701 4.79806 11.7437 4.86173 11.8052L8.19506 15.1385C8.32008 15.2635 8.48962 15.3337 8.6664 15.3337C8.84317 15.3337 9.01271 15.2635 9.13773 15.1385L15.8044 8.47184C15.9294 8.34682 15.9996 8.17728 15.9996 8.00051C15.9996 7.82373 15.9294 7.65419 15.8044 7.52918Z"
      fill="currentColor" />
  </g>
  <defs>
    <clipPath id="clip0_2392_17322">
      <rect width="16" height="16" fill="currentColor" />
    </clipPath>
  </defs>
</svg>