<svg width="17" height="16" viewBox="0 0 17 16" fill="none" xmlns="http://www.w3.org/2000/svg">
  <g clip-path="url(#clip0_1667_10718)">
    <path
      d="M8.17439 4.2002C8.31573 4.2002 8.4394 4.23346 8.5454 4.29999C8.65847 4.35987 8.75033 4.4763 8.821 4.64929L11.3332 10.747C11.3898 10.8933 11.3862 11.0231 11.3226 11.1362C11.2661 11.2426 11.1707 11.3158 11.0364 11.3557C10.8951 11.3957 10.7573 11.4023 10.623 11.3757C10.4888 11.3424 10.3898 11.2426 10.3262 11.0763L9.62661 9.28991H6.69037L5.96956 11.1062C5.91303 11.2593 5.82116 11.3524 5.69396 11.3857C5.57382 11.4123 5.44308 11.4023 5.30175 11.3557C5.16748 11.3092 5.07208 11.2393 5.01555 11.1462C4.95901 11.0464 4.95901 10.9233 5.01555 10.7769L7.53838 4.64929C7.60905 4.4763 7.69738 4.35987 7.80339 4.29999C7.90939 4.23346 8.03306 4.2002 8.17439 4.2002ZM8.16379 5.42772C8.09312 5.64727 8.02246 5.85685 7.95179 6.05644C7.88112 6.24939 7.79632 6.47227 7.69738 6.72509L7.00837 8.45161H9.30861L8.6302 6.72509C8.53126 6.47227 8.44293 6.24274 8.36519 6.03649C8.29453 5.83024 8.22739 5.62731 8.16379 5.42772Z"
      fill="currentColor" />
    <path
      d="M2.84017 1.3335H13.5068C14.2402 1.3335 14.8402 2.0835 14.8402 3.00016V13.0002C14.8402 13.9168 14.2402 14.6668 13.5068 14.6668H2.84017C2.10684 14.6668 1.50684 13.9168 1.50684 13.0002V3.00016C1.50684 2.0835 2.10684 1.3335 2.84017 1.3335Z"
      stroke="currentColor" stroke-width="1.2" stroke-linecap="round" stroke-linejoin="round" />
  </g>
  <defs>
    <clipPath id="clip0_1667_10718">
      <rect width="16" height="16" fill="white" transform="translate(0.17334)" />
    </clipPath>
  </defs>
</svg>